<svg width="20" height="20" viewBox="0 0 20 20" fill="none" xmlns="http://www.w3.org/2000/svg">
<path d="M16.6499 15.9375L4.7749 4.0625M8.5749 8.76624C8.27928 9.09216 8.0999 9.52028 8.0999 9.98916C8.0999 11.0102 8.95056 11.838 9.9999 11.838C10.4837 11.838 10.9253 11.662 11.2607 11.3723M16.6806 11.838C17.3347 10.8588 17.5999 10.0603 17.5999 10.0603C17.5999 10.0603 15.8704 4.5375 9.9999 4.5375C9.67033 4.5375 9.3538 4.55491 9.0499 4.58777M14.2749 14.235C13.1844 14.9306 11.7806 15.4225 9.9999 15.3934C4.20247 15.2986 2.3999 10.0603 2.3999 10.0603C2.3999 10.0603 3.23737 7.38598 5.7249 5.75929" stroke="white" stroke-linecap="round"/>
</svg>
