<svg width="20" height="20" viewBox="0 0 20 20" fill="none" xmlns="http://www.w3.org/2000/svg">
<path d="M17.9414 16.2069C17.9414 16.2069 16.8793 17.2501 16.619 17.5559C16.195 18.0084 15.6954 18.222 15.0405 18.222C14.9776 18.222 14.9104 18.222 14.8474 18.2178C13.6006 18.1382 12.4419 17.6523 11.5729 17.2375C9.19685 16.0896 7.11041 14.4599 5.37662 12.3945C3.94508 10.6726 2.98792 9.08058 2.35402 7.37127C1.9636 6.32809 1.82086 5.51534 1.88383 4.74866C1.92581 4.25849 2.11473 3.85211 2.46316 3.50439L3.8947 2.07577C4.10041 1.88306 4.31871 1.77832 4.53281 1.77832C4.79728 1.77832 5.01138 1.93752 5.14572 2.07158C5.14992 2.07577 5.15412 2.07996 5.15832 2.08415C5.4144 2.32295 5.65788 2.57013 5.91397 2.83407C6.04411 2.96813 6.17844 3.1022 6.31278 3.24045L7.45885 4.38418C7.90385 4.82826 7.90385 5.23883 7.45885 5.68292C7.33711 5.80441 7.21956 5.9259 7.09782 6.04321C6.74518 6.4035 7.0222 6.12705 6.65697 6.45383C6.64857 6.46221 6.64017 6.4664 6.63598 6.47478C6.27494 6.83508 6.34211 7.18699 6.41768 7.42579C6.42188 7.43836 6.42607 7.45093 6.43027 7.4635C6.72833 8.18409 7.14814 8.86278 7.78624 9.67135L7.79044 9.67554C8.94911 11.1 10.1707 12.2102 11.5183 13.0606C11.6904 13.1696 11.8668 13.2575 12.0347 13.3413C12.1858 13.4167 12.3285 13.488 12.4503 13.5634C12.4671 13.5718 12.4839 13.5843 12.5007 13.5927C12.6434 13.6639 12.7777 13.6974 12.9163 13.6974C13.2647 13.6974 13.483 13.4796 13.5544 13.4084L14.3772 12.5872C14.52 12.4447 14.7467 12.273 15.0112 12.273C15.2714 12.273 15.4855 12.4364 15.6157 12.5788C15.6199 12.583 15.6199 12.583 15.6241 12.5872L17.9372 14.8956C18.3696 15.3229 17.9414 16.2069 17.9414 16.2069Z" stroke="black" stroke-width="1.83333" stroke-linecap="round" stroke-linejoin="round"/>
</svg>
