<svg width="19" height="19" viewBox="0 0 19 19" fill="none" xmlns="http://www.w3.org/2000/svg">
<path d="M1.88462 14.5893V17.6429H5V14.5893H1.88462ZM5.69231 14.5893V17.6429H9.15385V14.5893H5.69231ZM1.88462 10.5179V13.9107H5V10.5179H1.88462ZM5.69231 10.5179V13.9107H9.15385V10.5179H5.69231ZM1.88462 6.78571V9.83929H5V6.78571H1.88462ZM9.84615 14.5893V17.6429H13.3077V14.5893H9.84615ZM5.69231 6.78571V9.83929H9.15385V6.78571H5.69231ZM14 14.5893V17.6429H17.1154V14.5893H14ZM9.84615 10.5179V13.9107H13.3077V10.5179H9.84615ZM5.9357 4.98856C6.00421 4.92141 6.03846 4.84189 6.03846 4.75V1.69643C6.03846 1.60454 6.00421 1.52502 5.9357 1.45787C5.86719 1.39072 5.78606 1.35714 5.69231 1.35714H5C4.90625 1.35714 4.82512 1.39072 4.75661 1.45787C4.6881 1.52502 4.65385 1.60454 4.65385 1.69643V4.75C4.65385 4.84189 4.6881 4.92141 4.75661 4.98856C4.82512 5.05571 4.90625 5.08929 5 5.08929H5.69231C5.78606 5.08929 5.86719 5.05571 5.9357 4.98856ZM14 10.5179V13.9107H17.1154V10.5179H14ZM9.84615 6.78571V9.83929H13.3077V6.78571H9.84615ZM14 6.78571V9.83929H17.1154V6.78571H14ZM14.2434 4.98856C14.3119 4.92141 14.3462 4.84189 14.3462 4.75V1.69643C14.3462 1.60454 14.3119 1.52502 14.2434 1.45787C14.1749 1.39072 14.0938 1.35714 14 1.35714H13.3077C13.2139 1.35714 13.1328 1.39072 13.0643 1.45787C12.9958 1.52502 12.9615 1.60454 12.9615 1.69643V4.75C12.9615 4.84189 12.9958 4.92141 13.0643 4.98856C13.1328 5.05571 13.2139 5.08929 13.3077 5.08929H14C14.0938 5.08929 14.1749 5.05571 14.2434 4.98856ZM18.0889 3.11719C18.363 3.38579 18.5 3.70387 18.5 4.07143V17.6429C18.5 18.0104 18.363 18.3285 18.0889 18.5971C17.8149 18.8657 17.4904 19 17.1154 19H1.88462C1.50962 19 1.1851 18.8657 0.911058 18.5971C0.637019 18.3285 0.5 18.0104 0.5 17.6429V4.07143C0.5 3.70387 0.637019 3.38579 0.911058 3.11719C1.1851 2.84859 1.50962 2.71429 1.88462 2.71429H3.26923V1.69643C3.26923 1.22991 3.4387 0.830543 3.77764 0.498326C4.11659 0.166109 4.52404 0 5 0H5.69231C6.16827 0 6.57572 0.166109 6.91466 0.498326C7.25361 0.830543 7.42308 1.22991 7.42308 1.69643V2.71429H11.5769V1.69643C11.5769 1.22991 11.7464 0.830543 12.0853 0.498326C12.4243 0.166109 12.8317 0 13.3077 0H14C14.476 0 14.8834 0.166109 15.2224 0.498326C15.5613 0.830543 15.7308 1.22991 15.7308 1.69643V2.71429H17.1154C17.4904 2.71429 17.8149 2.84859 18.0889 3.11719Z" fill="black"/>
</svg>
