<svg width="18" height="18" viewBox="0 0 18 18" fill="none" xmlns="http://www.w3.org/2000/svg">
<path d="M8.08361 16.1905H3.78822C2.8393 16.1905 2.07006 15.4213 2.07007 14.4723L2.07013 4.16346C2.07014 3.21455 2.83938 2.44531 3.78829 2.44531H11.5202C12.4691 2.44531 13.2383 3.21456 13.2383 4.16347V7.59977M12.8085 13.1473V13.102M5.07711 5.88162H10.2316M5.07711 8.45885H10.2316M5.07711 11.0361H7.65434M15.8153 13.1838C15.8153 13.1838 15.1022 15.2883 12.8085 15.2515C10.5149 15.2148 9.80176 13.1838 9.80176 13.1838C9.80176 13.1838 10.486 11.0425 12.8085 11.0425C15.1311 11.0425 15.8153 13.1838 15.8153 13.1838Z" stroke="black" stroke-width="1.4318" stroke-linecap="round" stroke-linejoin="round"/>
</svg>
