<svg width="161" height="185" viewBox="0 0 161 185" fill="none" xmlns="http://www.w3.org/2000/svg">
<rect x="2" y="87" width="126" height="96" rx="23" stroke="white" stroke-width="4"/>
<path d="M105.516 85V73.2581C105.516 51.0241 87.492 33 65.2581 33V33C43.0242 33 25 51.0241 25 73.2581V85" stroke="white" stroke-width="4"/>
<circle cx="64.5" cy="134.5" r="12.5" stroke="white" stroke-width="4"/>
<path d="M132.614 67.6965C132.614 65.3654 132.763 63.3631 133.062 61.6896C133.421 60.016 133.929 58.5815 134.586 57.3861C135.244 56.1309 136.051 55.0849 137.007 54.2482C137.963 53.3516 139.039 52.5447 140.235 51.8275C141.49 51.1102 142.864 50.393 144.359 49.6757C145.853 48.8987 147.228 48.0022 148.483 46.9861C149.798 45.9102 150.874 44.5953 151.71 43.0412C152.547 41.4872 152.966 39.5447 152.966 37.2136C152.966 35.0619 152.577 33.1791 151.8 31.5653C151.083 29.9515 150.097 28.6067 148.841 27.5308C147.646 26.455 146.241 25.6779 144.628 25.1998C143.074 24.6618 141.46 24.3929 139.786 24.3929C136.379 24.3929 133.301 25.2894 130.552 27.0825C127.802 28.8757 125.74 31.2067 124.366 34.0757L121.138 32.1033C121.915 30.2504 122.961 28.6067 124.276 27.1722C125.651 25.7377 127.145 24.5423 128.759 23.586C130.432 22.5699 132.195 21.8228 134.048 21.3446C135.961 20.8067 137.874 20.5377 139.786 20.5377C141.998 20.5377 144.12 20.8963 146.152 21.6136C148.244 22.3308 150.097 23.4067 151.71 24.8412C153.324 26.2159 154.609 27.9791 155.566 30.1308C156.522 32.2228 157 34.6734 157 37.4826C157 39.9929 156.612 42.1148 155.835 43.8481C155.117 45.5815 154.131 47.0458 152.876 48.2412C151.681 49.4367 150.306 50.4826 148.752 51.3792C147.198 52.216 145.644 52.993 144.09 53.7102C142.835 54.3079 141.729 54.9355 140.772 55.593C139.876 56.1907 139.099 56.9976 138.441 58.0137C137.844 59.0298 137.366 60.3149 137.007 61.8689C136.708 63.4229 136.559 65.3654 136.559 67.6965H132.614ZM132.704 85V76.2138H136.648V85H132.704Z" fill="white"/>
</svg>
