<svg width="22" height="22" viewBox="0 0 22 22" fill="none" xmlns="http://www.w3.org/2000/svg">
<path d="M4.524 8.936C4.396 8.992 4.216 9.036 3.984 9.068C3.76 9.092 3.612 9.108 3.54 9.116L3.156 7.964C3.156 7.972 3.24 7.952 3.408 7.904C3.576 7.848 3.76 7.756 3.96 7.628C4.16 7.5 4.348 7.324 4.524 7.1H5.844V15.5H4.512L4.524 8.936ZM6.97371 14.288L9.73371 10.244C10.0057 9.86 10.1417 9.5 10.1417 9.164C10.1417 8.892 10.0497 8.676 9.86571 8.516C9.68971 8.356 9.46571 8.276 9.19371 8.276C8.97771 8.276 8.78571 8.356 8.61771 8.516C8.44971 8.668 8.35771 8.844 8.34171 9.044L7.17771 8.42C7.32171 8.012 7.58571 7.672 7.96971 7.4C8.35371 7.12 8.79771 6.98 9.30171 6.98C9.71771 6.98 10.0857 7.072 10.4057 7.256C10.7337 7.432 10.9857 7.68 11.1617 8C11.3457 8.312 11.4377 8.66 11.4377 9.044C11.4377 9.588 11.2577 10.132 10.8977 10.676L8.50971 14.288H11.4737V15.5H6.97371V14.288ZM13.9277 13.568C14.0397 13.8 14.2157 13.992 14.4557 14.144C14.6957 14.288 14.9477 14.36 15.2117 14.36C15.6117 14.36 15.9197 14.236 16.1357 13.988C16.3597 13.74 16.4717 13.44 16.4717 13.088C16.4717 12.672 16.3157 12.36 16.0037 12.152C15.6917 11.944 15.2677 11.828 14.7317 11.804H13.4117L15.6677 8.42H13.6277V7.1H17.0837V8.42L15.6797 10.544L15.7397 10.556C16.0837 10.628 16.4117 10.776 16.7237 11C17.0437 11.224 17.2997 11.516 17.4917 11.876C17.6917 12.236 17.7917 12.64 17.7917 13.088C17.7917 13.552 17.6757 13.98 17.4437 14.372C17.2197 14.764 16.9117 15.076 16.5197 15.308C16.1277 15.532 15.6997 15.644 15.2357 15.644C14.8037 15.644 14.3997 15.544 14.0237 15.344C13.6477 15.136 13.3437 14.856 13.1117 14.504L13.9277 13.568Z" fill="white"/>
</svg>
