<svg width="25" height="24" viewBox="0 0 25 24" fill="none" xmlns="http://www.w3.org/2000/svg">
<path d="M7.02879 9.30234H7.16882M12.4999 9.30234H12.6399M17.8294 9.30234H17.9694M11.8999 14.7023H5.03324C3.85503 14.7023 2.8999 13.7472 2.8999 12.569V6.03568C2.8999 4.85747 3.85503 3.90234 5.03324 3.90234H19.9666C21.1448 3.90234 22.0999 4.85747 22.0999 6.03568V9.30234M15.9111 13.5974L17.3011 12.9024C18.3146 12.3957 19.5076 12.3957 20.5211 12.9024L21.9111 13.5974C21.9111 13.5974 21.9111 15.7874 21.9111 16.9424C21.9111 18.0974 20.8434 18.8771 18.9111 20.0974C16.9788 18.8771 15.9111 17.8474 15.9111 16.9424V13.5974Z" stroke="black" stroke-width="2" stroke-linecap="round" stroke-linejoin="round"/>
</svg>
